<svg id="Layer_1" data-name="Layer 1" xmlns="http://www.w3.org/2000/svg" xmlns:xlink="http://www.w3.org/1999/xlink" viewBox="0 0 418.72 246.71"><defs><style>.cls-1{fill:url(#linear-gradient);}.cls-2{fill:#fff;}</style><linearGradient id="linear-gradient" y1="218.19" x2="418.72" y2="218.19" gradientUnits="userSpaceOnUse"><stop offset="0" stop-color="#fff" stop-opacity="0"/><stop offset="0.08" stop-color="#fff" stop-opacity="0.16"/><stop offset="0.25" stop-color="#fff" stop-opacity="0.52"/><stop offset="0.39" stop-color="#fff" stop-opacity="0.78"/><stop offset="0.49" stop-color="#fff" stop-opacity="0.94"/><stop offset="0.54" stop-color="#fff"/><stop offset="0.66" stop-color="#fff" stop-opacity="0.73"/><stop offset="1" stop-color="#fff" stop-opacity="0"/></linearGradient></defs><rect class="cls-1" y="216.79" width="418.72" height="2.79"/><path class="cls-2" d="M234.77,72.83c-.21,9-3.5,16.35-10.52,21.75a23.73,23.73,0,0,1-16.31,4.84c-12.81-.74-20.86-10-23-26.89-.79,1-1.38,1.61-1.86,2.31-6.82,9.87-13.66,19.72-20.41,29.63a21.67,21.67,0,0,1-9.46,7.8l-73.71,32c-.53.23-1.07.41-2,.75,1.58-3.88,3-7.13,6.63-9.24,8.07-4.66,15.91-9.73,23.83-14.64.62-.39,1.17-.88,1.76-1.32l-.25-.66-19.6,3.45c6.09-6.27,10.58-13.07,19.2-15.19,5.67-1.4,11.11-3.79,16.65-5.75.68-.24,1.33-.57,2-.86l-.14-.69L113,101.16c3.78-3.61,7-6.74,10.33-9.86q15.94-15.21,31.9-30.43c5.37-5.14,10.59-10.43,16.08-15.45a28.28,28.28,0,0,0,7.14-10.3c2.22-5.34,4.77-10.55,7-15.9.94-2.29,2.3-3.08,4.71-3,5.77.14,11.54.05,17.27.05.53,2.26.19,3.35-1.87,4.55-1.63.94-2.3,3.55-3.18,5.88,4.92-2.62,9.61-3,14.37.17-.94-2.62-.49-5.74-4-6.85-.69-.22-.88-2.06-1.54-3.75h6.24c4.15,0,8.3.07,12.45,0a3.72,3.72,0,0,1,3.95,2.59q4.38,10.1,9,20.11A11,11,0,0,0,245,42.33q24.91,24,49.93,48c3.59,3.44,7.2,6.87,11.38,10.86l-14.58-1.09-.21.65c.71.32,1.4.68,2.13.94,5.46,1.93,10.85,4.08,16.4,5.69a25.74,25.74,0,0,1,12.89,8.2c1.89,2.22,3.94,4.3,6.44,7l-19.59-3.44-.28.53a20.22,20.22,0,0,0,1.86,1.49c7.77,4.83,15.45,9.81,23.38,14.37,3.73,2.14,5.4,5.37,7.06,9.56-3.34-1.43-6.29-2.68-9.22-3.95q-33.06-14.36-66.1-28.7a22.57,22.57,0,0,1-10.06-8.23c-6.67-9.86-13.47-19.63-20.23-29.43C235.77,74.09,235.26,73.47,234.77,72.83ZM191.47,58c12.08-9.91,24.05-10.26,36.67.06L220,35.39c-1.61,5.6-4.48,8.84-9.63,9.13-5.86.34-9.13-3.08-11-9-2.57,7.11-4.92,13.57-7.25,20C191.88,56.25,191.74,57,191.47,58Z"/><path class="cls-2" d="M132,127.66c5.85-2.53,11.68-5.1,17.58-7.5a2.92,2.92,0,0,1,2.4,1,70.43,70.43,0,0,0,22.92,19.47c20.67,10.9,41.88,11.89,63.47,3,11.75-4.85,21.32-12.61,29.18-22.55a2.77,2.77,0,0,1,2.41-.85c5.82,2.37,11.58,4.91,17.36,7.4-10.89,23.32-38.86,47.5-77,47.82C173.39,175.78,144.14,153.05,132,127.66Z"/><path class="cls-2" d="M218.34,186.51q-2,7.29-3.91,14.57c-.57,2.16-1,4.38-1.75,6.48a2.93,2.93,0,0,1-2.1,1.56c-3.45.17-6.92,0-10.38.13a2.94,2.94,0,0,1-3.37-2.3c-2.94-8.18-6-16.32-9-24.47-.48-1.3-1-2.58-1.53-3.87l-.8.13v5.93H160v5.21h24.06v6.79H160v5h25.46v7.37H151.09v-30.9c.88-.05,1.71-.15,2.54-.15,13.06,0,26.11.12,39.17.08a3,3,0,0,1,3.32,2.32c2.24,6.41,4.62,12.77,7,19.11.27.7,1.18,1.16,1.8,1.73.51-.59,1.26-1.11,1.48-1.8q3-9.33,5.78-18.71c.56-1.91,1.41-2.89,3.59-2.64a35.89,35.89,0,0,0,6.22,0c1.7-.12,2.37.57,2.85,2.16,1.93,6.41,4,12.79,6.11,19.16.22.68.92,1.2,1.4,1.8.64-.56,1.58-1,1.85-1.71,2.4-6.27,4.74-12.56,6.94-18.9.63-1.83,1.45-2.72,3.48-2.56s4.29,0,6.93,0c-1.25,3.41-2.34,6.45-3.49,9.46-2.46,6.45-5,12.86-7.41,19.33-.67,1.8-1.59,2.5-3.58,2.38-3.28-.2-6.58-.14-9.86,0-1.62.06-2.24-.53-2.63-2.07-1.66-6.59-3.47-13.14-5.23-19.71a6.77,6.77,0,0,0-.36-.88Z"/><path class="cls-2" d="M122.38,86.13C122.11,44.77,155.79,1.54,207.29,0c49.75-1.45,89.1,38.57,89.85,86.12-2.89-2.69-5.45-5.34-8.29-7.63-4.51-3.62-6.54-8-7.34-13.9-4.21-31.2-31-57-62.19-60.69-23-2.72-43.16,3.69-60,19.57C145.92,36.22,138.51,52.08,137,70.6a3.57,3.57,0,0,1-.66,2.12C131.8,77.17,127.18,81.54,122.38,86.13Z"/><path class="cls-2" d="M101.68,186.21v22.87H92.9v-31.2c5.45,0,10.86-.06,16.27.08.51,0,1.14,1.1,1.47,1.8,2.62,5.64,5.17,11.31,7.75,17,.2.43.48.83,1,1.79,1.92-4.16,3.64-7.87,5.34-11.59,1.15-2.51,2.21-5.06,3.45-7.53.32-.63,1.14-1.44,1.74-1.45,5.17-.12,10.35-.07,15.71-.07V209h-8.73V186.22c-1.85-.95-2.31.42-2.88,1.55C131,193.86,127.94,200,124.82,206c-.57,1.12-1.27,2.84-2.15,3a27.46,27.46,0,0,1-7,0c-.41,0-.8-1-1.11-1.61-3.38-6.61-6.71-13.24-10.14-19.83a9.63,9.63,0,0,0-2-2Z"/><path class="cls-2" d="M67.35,209.92c-4.49-.22-8.89-.32-13.26-.69-5.22-.44-7.69-2.93-7.88-8.12s-.22-10.18,0-15.26,2.67-7.8,7.73-7.95c9-.26,18.08-.22,27.11,0,4.51.12,6.91,2.38,7.22,6.9a124.57,124.57,0,0,1,0,17.28c-.35,4.81-2.71,6.72-7.62,7.11C76.22,209.58,71.73,209.7,67.35,209.92Zm0-24.35v0c-2.77,0-5.53-.08-8.29,0-1.79.08-3.3,1-3.44,2.9-.22,3.17-.24,6.36-.17,9.54a3.26,3.26,0,0,0,3.36,3.31c5.61.17,11.23.2,16.83,0,2.41-.06,3.71-1.68,3.73-4.13s0-5.18-.08-7.76c-.11-2.42-1.42-3.87-3.92-3.94C72.72,185.52,70,185.57,67.37,185.57Z"/><path class="cls-2" d="M274.22,177.24c4.56.21,9.14.3,13.69.67,4.77.38,7.13,2.33,7.44,7a135.23,135.23,0,0,1,0,17.55c-.26,4.19-2.67,6.56-6.88,6.68q-13.94.41-27.9,0c-4.27-.13-6.65-2.34-7-6.64a106,106,0,0,1,0-17.55c.47-5.16,3.34-7,9.3-7.26,1.89-.09,3.79-.18,5.69-.22s3.8,0,5.7,0Zm-.1,24.25h0c2.76,0,5.52.09,8.27,0,2.51-.11,4-1.48,4.06-4.08s.05-5.34-.08-8c-.12-2.3-1.4-3.76-3.76-3.79q-8.26-.12-16.54,0a3.11,3.11,0,0,0-3.38,2.92q-.33,4.62-.22,9.26c0,2.39,1.67,3.55,3.9,3.67C269,201.59,271.54,201.49,274.12,201.49Z"/><path class="cls-2" d="M377.82,177.84c4.22,0,8.27,0,12.31,0,6.73.09,13.47,0,20.18.43,5.1.29,7.74,2.62,8.17,7.7a96.1,96.1,0,0,1-.2,15.73c-.32,4-3,6.31-6.95,6.91a44.11,44.11,0,0,1-6.17.58c-8.29.07-16.59,0-24.89,0-.76,0-1.52-.07-2.45-.12ZM386.87,201c6.38,0,12.49,0,18.6,0,2.56,0,4-1.41,4.09-4,.06-2.4.07-4.81-.09-7.2a3.51,3.51,0,0,0-3.64-3.62c-6.27-.07-12.54,0-19,0Z"/><path class="cls-2" d="M309.59,201.45v7.62H300.5V178c.84,0,1.67-.11,2.49-.11q13.49,0,27,0a11.25,11.25,0,0,1,3.82.4c1.41.52,3.43,1.26,3.78,2.36a37.66,37.66,0,0,1,1.59,9.22c.21,3.33-.87,6.19-5.36,7.15,7.24,2.21,4.52,7.6,5.18,12.07h-9.15c-.09-1.57-.14-3.1-.25-4.62a2.9,2.9,0,0,0-3.2-3C320.93,201.44,315.49,201.45,309.59,201.45Zm.21-8.12c5.95,0,11.72.06,17.49,0,2.31,0,2.61-1.86,2.62-3.71s-.28-3.54-2.45-3.58c-5.84-.12-11.69,0-17.66,0Z"/><path class="cls-2" d="M9.57,178v11.14H31.51V178.06h9.83v31H31.66V198h-22v11H0V178Z"/><path class="cls-2" d="M343,209.09V178h9.46v23.11h22.45v8Z"/><path class="cls-2" d="M168,246.42h-5.58V230.47c-2.83,2.45-3.54,5.42-4.92,7.92s-2.72,5.39-4.05,8c-4.93.41-4.92.4-7.08-3.9-1.62-3.24-3.23-6.49-4.91-9.7a14.89,14.89,0,0,0-1.53-2l-.62.27v15.25h-5.77V226.09c3.37,0,6.72-.08,10.06.07.59,0,1.35.87,1.67,1.52,1.43,2.94,2.73,6,4.1,8.93.37.83.82,1.62,1.55,3,1.95-4.16,3.75-7.65,5.22-11.28a3.17,3.17,0,0,1,3.65-2.33c2.66.16,5.33,0,8.21,0Z"/><path class="cls-2" d="M202.56,226.15c6.92,0,13.72-.08,20.51,0,1.82,0,3.81.68,4.11,2.87.34,2.5,1,5.25-1.5,6.72.85,1.49,2.06,2.82,2.37,4.32.81,4-.69,6.16-4.66,6.32-6.88.27-13.77.08-20.83.08Zm5.73,8.15c4,0,7.79.08,11.62-.08.58,0,1.43-1.12,1.55-1.82.08-.53-.79-1.73-1.27-1.74-4-.15-8-.08-11.9-.08Zm0,7.28c4.19,0,8.23.06,12.26-.07a2.25,2.25,0,0,0,1.61-1.48,2.13,2.13,0,0,0-1.39-1.61c-4.11-.14-8.24-.08-12.48-.08Z"/><path class="cls-2" d="M185.57,246.71c-3-.16-6-.28-9-.5s-4.68-1.71-4.83-4.69c-.17-3.51-.13-7.05,0-10.57a4.22,4.22,0,0,1,4.24-4.39q9.53-.27,19.06,0a4.11,4.11,0,0,1,4.14,4.19,102.38,102.38,0,0,1,0,11.08c-.17,2.8-1.91,4.18-4.84,4.38S188.53,246.55,185.57,246.71Zm-.06-15.65c-7.5.05-8.22-1.12-8,7.29.05,2.18,1.21,3.15,3.23,3.19,3.19.06,6.4.18,9.57-.07a4,4,0,0,0,3-1.9c2.07-5.48-.14-8.51-6-8.51Z"/><path class="cls-2" d="M262.78,226.22h22.47v4.28H268.77v3.32h15.55v4.38H268.83v3.4h16.46v4.75H262.78Z"/><path class="cls-2" d="M239.92,226.2H246v15.39h14.69v4.84H239.92Z"/><path class="cls-2" d="M236.58,246.44h-6V226.25h6Z"/></svg>